<svg width="320" height="200" xmlns="http://www.w3.org/2000/svg" data-name="Layer 1">
 <title>BPC-nw_200x100-outlined</title>

 <g>
  <title>Layer 1</title>
  <polygon id="svg_1" fill="#2a76bb" fill-rule="evenodd" points="94.10022735595703,96.2966593503952 94.10022735595703,96.2966593503952 94.45022583007812,96.8966578245163 128.64022827148438,164.63666331768036 94.10022735595703,130.46666514873505 60.00022506713867,164.63666331768036 94.10022735595703,96.2966593503952 "/>
  <polygon id="svg_2" fill="#b9babd" fill-rule="evenodd" points="94.10022735595703,147.55666148662567 94.10022735595703,147.55666148662567 128.64022827148438,164.63666331768036 94.10022735595703,156.09667003154755 60.00022506713867,164.63666331768036 94.10022735595703,147.55666148662567 "/>
  <path id="svg_3" fill="#2a76bb" fill-rule="evenodd" d="m244.60022,130.18666l0,0a10.26,10.26 0 0 0 -9.17,-5.26a9.3,9.3 0 0 0 -7,2.88a10.4,10.4 0 0 0 0,14.39a9.91,9.91 0 0 0 7.27,2.78a10.08,10.08 0 0 0 5.47,-1.29a8.88,8.88 0 0 0 3.4,-4.17l8.79,0a17.4,17.4 0 0 1 -6.28,9.73a18.16,18.16 0 0 1 -11.35,3.58a19,19 0 0 1 -7.18,-1.39a17.6,17.6 0 0 1 -6.06,-4a15.88,15.88 0 0 1 -3.89,-5.66a15.94,15.94 0 0 1 -1.39,-6.66a18.29,18.29 0 0 1 1.15,-6.62a17.8,17.8 0 0 1 3.78,-5.56a20.35,20.35 0 0 1 6.32,-4.31a18.59,18.59 0 0 1 7.47,-1.49a17.78,17.78 0 0 1 11.15,3.58a16.33,16.33 0 0 1 6.28,9.47l-8.76,0z"/>
  <path id="svg_4" fill="#2a76bb" fill-rule="evenodd" d="m169.69022,127.80666l0,0a17.08,17.08 0 0 0 -4.38,-6a19.1,19.1 0 0 0 -5.48,-3.28a18.9,18.9 0 0 0 -6.67,-1.09l-0.5,0a18.7,18.7 0 0 0 -5.57,0.8a16.07,16.07 0 0 0 -5,2.68l0,-15.35l-8.05,0l0,47.16l8.06,0l0,-3.58a18.43,18.43 0 0 0 5.18,2.69a18.13,18.13 0 0 0 5.38,1l0.4,0a19.14,19.14 0 0 0 6.3,-1.1a14.38,14.38 0 0 0 5.27,-2.88a17.32,17.32 0 0 0 4.87,-6.23a17,17 0 0 0 1.79,-7.64a16.2,16.2 0 0 0 -1.6,-7.18zm-9.86,14.39l0,0a10.87,10.87 0 0 1 -7.17,2.78l-0.5,0a9,9 0 0 1 -6.87,-2.88a9.36,9.36 0 0 1 -2.93,-6.85a10,10 0 0 1 10.2,-10.12l0.1,0a10.21,10.21 0 0 1 7.17,3a9.5,9.5 0 0 1 3,7.05a9.33,9.33 0 0 1 -3,7.02z"/>
  <path id="svg_5" fill="#2a76bb" fill-rule="evenodd" d="m211.83022,127.50666l0,0a17.09,17.09 0 0 0 -4.88,-6.16a16.42,16.42 0 0 0 -5.29,-3a18.93,18.93 0 0 0 -6.27,-1l-0.49,0a17.75,17.75 0 0 0 -5.29,0.9a18.29,18.29 0 0 0 -5.17,2.78l0,-3.65l-8.17,0l0,47.25l8.17,0l0,-15.48a14.16,14.16 0 0 0 5,2.78a22.5,22.5 0 0 0 5.49,0.9l0.59,0a18.35,18.35 0 0 0 6.54,-1.2a17.83,17.83 0 0 0 5.58,-3.38a17.23,17.23 0 0 0 4.39,-6a16.33,16.33 0 0 0 1.59,-7.15a16.83,16.83 0 0 0 -1.79,-7.59zm-9.66,14.5l0,0a10.23,10.23 0 0 1 -7.27,3l0,0a9.86,9.86 0 0 1 -10.17,-10a9.85,9.85 0 0 1 9.77,-9.83a0.63,0.63 0 0 1 0.4,0.1a10,10 0 0 1 7.16,2.78a8.79,8.79 0 0 1 3.09,7a9.31,9.31 0 0 1 -2.98,6.95z"/>
  <path id="svg_6" fill="#1a5fa9" d="m61.67022,187.97666l-1.31,0l0,-11l1.41,0l0,3.92a2.78,2.78 0 0 1 2.24,-1.07a3.57,3.57 0 0 1 1.42,0.29a2.92,2.92 0 0 1 1.11,0.84a3.77,3.77 0 0 1 0.68,1.29a5.27,5.27 0 0 1 0.25,1.61a4.46,4.46 0 0 1 -1,3.16a3.26,3.26 0 0 1 -2.49,1.12a2.62,2.62 0 0 1 -2.27,-1.18l-0.04,1.02zm0,-4a4,4 0 0 0 0.4,2.07a2,2 0 0 0 3.29,0.23a3.41,3.41 0 0 0 0.66,-2.28a3.49,3.49 0 0 0 -0.63,-2.3a1.92,1.92 0 0 0 -1.53,-0.74a2,2 0 0 0 -1.5,0.76a3.34,3.34 0 0 0 -0.7,2.22l0.01,0.04z"/>
  <path id="svg_7" fill="#1a5fa9" d="m74.47022,186.99666a5.4,5.4 0 0 1 -1.47,0.9a4.55,4.55 0 0 1 -1.53,0.26a3,3 0 0 1 -2.11,-0.64a2.22,2.22 0 0 1 -0.45,-2.7a2.25,2.25 0 0 1 0.72,-0.78a3.43,3.43 0 0 1 1,-0.44a9.49,9.49 0 0 1 1.23,-0.2a12.87,12.87 0 0 0 2.5,-0.47c0,-0.18 0,-0.3 0,-0.35a1.47,1.47 0 0 0 -0.39,-1.16a2.4,2.4 0 0 0 -1.61,-0.46a2.5,2.5 0 0 0 -1.44,0.34a2,2 0 0 0 -0.69,1.18l-1.35,-0.18a3.1,3.1 0 0 1 0.61,-1.37a2.66,2.66 0 0 1 1.22,-0.8a5.49,5.49 0 0 1 1.85,-0.28a5,5 0 0 1 1.7,0.24a2.33,2.33 0 0 1 1,0.6a2.12,2.12 0 0 1 0.43,0.92a6.92,6.92 0 0 1 0.07,1.24l0,1.78a18.12,18.12 0 0 0 0.09,2.37a2.85,2.85 0 0 0 0.35,1l-1.45,0a3.13,3.13 0 0 1 -0.28,-1zm-0.11,-3a10.4,10.4 0 0 1 -2.26,0.51a5.42,5.42 0 0 0 -1.21,0.27a1.18,1.18 0 0 0 -0.54,0.44a1.09,1.09 0 0 0 -0.19,0.63a1.14,1.14 0 0 0 0.42,0.9a1.8,1.8 0 0 0 1.22,0.36a2.87,2.87 0 0 0 1.42,-0.34a2.12,2.12 0 0 0 0.92,-0.93a3.14,3.14 0 0 0 0.22,-1.36l0,-0.48z"/>
  <path id="svg_8" fill="#1a5fa9" d="m77.90022,187.97666l0,-7.95l1.25,0l0,1.13a3,3 0 0 1 2.59,-1.31a3.33,3.33 0 0 1 1.36,0.26a2.24,2.24 0 0 1 0.93,0.67a2.83,2.83 0 0 1 0.43,1a7.89,7.89 0 0 1 0.07,1.31l0,4.89l-1.38,0l0,-4.84a3.47,3.47 0 0 0 -0.16,-1.23a1.33,1.33 0 0 0 -0.57,-0.65a1.91,1.91 0 0 0 -1,-0.24a2.26,2.26 0 0 0 -1.52,0.54a2.66,2.66 0 0 0 -0.62,2.07l0,4.34l-1.38,0.01z"/>
  <path id="svg_9" fill="#1a5fa9" d="m86.66022,187.97666l0,-11l1.39,0l0,6.26l3.31,-3.21l1.79,0l-3.12,2.95l3.43,5l-1.7,0l-2.7,-4.07l-1,0.92l0,3.15l-1.4,0z"/>
  <path id="svg_10" fill="#1a5fa9" d="m94.53022,178.54666l0,-1.55l1.38,0l0,1.55l-1.38,0zm0,9.43l0,-7.95l1.38,0l0,7.95l-1.38,0z"/>
  <path id="svg_11" fill="#1a5fa9" d="m98.02022,187.97666l0,-7.95l1.24,0l0,1.13a3,3 0 0 1 2.6,-1.31a3.4,3.4 0 0 1 1.36,0.26a2.14,2.14 0 0 1 0.92,0.67a2.51,2.51 0 0 1 0.43,1a7.59,7.59 0 0 1 0.08,1.31l0,4.89l-1.38,0l0,-4.84a3.72,3.72 0 0 0 -0.16,-1.23a1.3,1.3 0 0 0 -0.58,-0.65a1.85,1.85 0 0 0 -1,-0.24a2.31,2.31 0 0 0 -1.53,0.54a2.7,2.7 0 0 0 -0.64,2.07l0,4.34l-1.34,0.01z"/>
  <path id="svg_12" fill="#1a5fa9" d="m106.52022,188.62666l1.34,0.19a1.21,1.21 0 0 0 0.47,0.88a2.34,2.34 0 0 0 1.41,0.38a2.51,2.51 0 0 0 1.48,-0.38a1.82,1.82 0 0 0 0.71,-1a9,9 0 0 0 0.1,-1.73a2.9,2.9 0 0 1 -2.26,1a3.15,3.15 0 0 1 -2.61,-1.18a4.52,4.52 0 0 1 -0.92,-2.84a5.18,5.18 0 0 1 0.42,-2.1a3.23,3.23 0 0 1 3.12,-2a3,3 0 0 1 2.38,1.14l0,-1l1.27,0l0,6.87a6.51,6.51 0 0 1 -0.38,2.63a2.81,2.81 0 0 1 -1.23,1.23a4.37,4.37 0 0 1 -2.07,0.45a4,4 0 0 1 -2.39,-0.6a2.15,2.15 0 0 1 -0.84,-1.94zm1.14,-4.78a3.39,3.39 0 0 0 0.64,2.28a2.15,2.15 0 0 0 3.2,0a3.29,3.29 0 0 0 0.64,-2.24a3.2,3.2 0 0 0 -0.66,-2.2a2.08,2.08 0 0 0 -1.6,-0.75a2,2 0 0 0 -1.57,0.73a3.2,3.2 0 0 0 -0.65,2.19l0,-0.01z"/>
  <path id="svg_13" fill="#1a5fa9" d="m124.27022,191.02666l0,-11l1.26,0l0,1a3.15,3.15 0 0 1 1,-0.91a2.87,2.87 0 0 1 1.36,-0.3a3.18,3.18 0 0 1 3.06,2a5.3,5.3 0 0 1 0.4,2.09a5.18,5.18 0 0 1 -0.45,2.2a3.35,3.35 0 0 1 -1.3,1.5a3.5,3.5 0 0 1 -1.8,0.52a2.68,2.68 0 0 1 -1.25,-0.29a3,3 0 0 1 -0.9,-0.71l0,3.9l-1.38,0zm1.25,-7a3.38,3.38 0 0 0 0.64,2.27a2,2 0 0 0 1.54,0.73a2,2 0 0 0 1.58,-0.76a3.53,3.53 0 0 0 0.66,-2.35a3.48,3.48 0 0 0 -0.64,-2.29a1.92,1.92 0 0 0 -3.1,0a3.57,3.57 0 0 0 -0.68,2.42l0,-0.02z"/>
  <path id="svg_14" fill="#1a5fa9" d="m138.36022,186.99666a5.59,5.59 0 0 1 -1.48,0.9a4.55,4.55 0 0 1 -1.53,0.26a3,3 0 0 1 -2.07,-0.64a2.22,2.22 0 0 1 -0.45,-2.7a2.25,2.25 0 0 1 0.72,-0.78a3.55,3.55 0 0 1 1,-0.44a9.81,9.81 0 0 1 1.23,-0.2a12.87,12.87 0 0 0 2.47,-0.47c0,-0.18 0,-0.3 0,-0.35a1.47,1.47 0 0 0 -0.39,-1.16a2.4,2.4 0 0 0 -1.58,-0.46a2.5,2.5 0 0 0 -1.44,0.34a2,2 0 0 0 -0.69,1.18l-1.35,-0.18a3.21,3.21 0 0 1 0.56,-1.37a2.66,2.66 0 0 1 1.22,-0.8a5.49,5.49 0 0 1 1.85,-0.28a5,5 0 0 1 1.7,0.24a2.33,2.33 0 0 1 1,0.6a2.12,2.12 0 0 1 0.43,0.92a6.92,6.92 0 0 1 0.07,1.24l0,1.78a18.12,18.12 0 0 0 0.09,2.37a2.85,2.85 0 0 0 0.35,1l-1.45,0a2.88,2.88 0 0 1 -0.26,-1zm-0.12,-3a10.25,10.25 0 0 1 -2.26,0.51a5.42,5.42 0 0 0 -1.21,0.27a1.18,1.18 0 0 0 -0.54,0.44a1.09,1.09 0 0 0 -0.19,0.63a1.14,1.14 0 0 0 0.42,0.9a1.8,1.8 0 0 0 1.22,0.36a2.87,2.87 0 0 0 1.42,-0.34a2.12,2.12 0 0 0 0.92,-0.93a3.14,3.14 0 0 0 0.22,-1.35l0,-0.49z"/>
  <path id="svg_15" fill="#1a5fa9" d="m141.71022,191.03666l-0.15,-1.26a3.55,3.55 0 0 0 0.79,0.11a1.71,1.71 0 0 0 0.74,-0.14a1.29,1.29 0 0 0 0.45,-0.42a6,6 0 0 0 0.42,-1l0.13,-0.33l-3.1,-8l1.49,0l1.7,4.6c0.22,0.59 0.41,1.2 0.59,1.84c0.16,-0.61 0.35,-1.22 0.57,-1.81l1.74,-4.63l1.39,0l-3.11,8.11a13.89,13.89 0 0 1 -0.78,1.81a2.55,2.55 0 0 1 -0.84,1a2,2 0 0 1 -1.14,0.32a2.89,2.89 0 0 1 -0.89,-0.2z"/>
  <path id="svg_16" fill="#1a5fa9" d="m149.64022,187.97666l0,-7.95l1.24,0l0,1.11a2.8,2.8 0 0 1 1,-0.94a3,3 0 0 1 1.48,-0.35a2.7,2.7 0 0 1 1.49,0.37a1.93,1.93 0 0 1 0.82,1a2.93,2.93 0 0 1 2.52,-1.39a2.56,2.56 0 0 1 1.87,0.65a2.79,2.79 0 0 1 0.65,2l0,5.46l-1.35,0l0,-5a3.55,3.55 0 0 0 -0.13,-1.16a1.14,1.14 0 0 0 -0.49,-0.58a1.57,1.57 0 0 0 -0.83,-0.21a2,2 0 0 0 -1.43,0.55a2.43,2.43 0 0 0 -0.57,1.79l0,4.62l-1.42,0l0,-5.14a2.15,2.15 0 0 0 -0.34,-1.34a1.28,1.28 0 0 0 -1.1,-0.45a2,2 0 0 0 -1.08,0.3a1.68,1.68 0 0 0 -0.72,0.87a4.78,4.78 0 0 0 -0.23,1.66l0,4.13l-1.38,0z"/>
  <path id="svg_17" fill="#1a5fa9" d="m168.36022,185.41666l1.43,0.17a3.39,3.39 0 0 1 -1.26,1.89a3.83,3.83 0 0 1 -2.33,0.68a3.77,3.77 0 0 1 -2.84,-1.08a4.12,4.12 0 0 1 -1,-3a4.3,4.3 0 0 1 1,-3.12a3.63,3.63 0 0 1 2.75,-1.11a3.53,3.53 0 0 1 2.67,1.08a4.24,4.24 0 0 1 1,3.06c0,0.08 0,0.2 0,0.36l-6.08,0a3,3 0 0 0 0.76,2a2.28,2.28 0 0 0 1.71,0.7a2.14,2.14 0 0 0 1.29,-0.39a2.57,2.57 0 0 0 0.9,-1.24zm-4.55,-2.18l4.55,0a2.58,2.58 0 0 0 -0.52,-1.5a2.14,2.14 0 0 0 -1.71,-0.78a2.23,2.23 0 0 0 -1.61,0.62a2.45,2.45 0 0 0 -0.73,1.66l0.02,0z"/>
  <path id="svg_18" fill="#1a5fa9" d="m171.50022,187.97666l0,-7.95l1.25,0l0,1.13a3,3 0 0 1 2.6,-1.31a3.32,3.32 0 0 1 1.35,0.26a2.24,2.24 0 0 1 0.93,0.67a2.66,2.66 0 0 1 0.43,1a7.89,7.89 0 0 1 0.07,1.31l0,4.89l-1.38,0l0,-4.84a3.47,3.47 0 0 0 -0.16,-1.23a1.33,1.33 0 0 0 -0.57,-0.65a1.91,1.91 0 0 0 -1,-0.24a2.28,2.28 0 0 0 -1.52,0.54a2.66,2.66 0 0 0 -0.64,2.08l0,4.34l-1.36,0z"/>
  <path id="svg_19" fill="#1a5fa9" d="m183.28022,186.76666l0.19,1.19a5.19,5.19 0 0 1 -1,0.12a2.38,2.38 0 0 1 -1.17,-0.23a1.26,1.26 0 0 1 -0.58,-0.61a4.75,4.75 0 0 1 -0.17,-1.59l0,-4.57l-1,0l0,-1l1,0l0,-2l1.37,-0.81l0,2.76l1.4,0l0,1l-1.4,0l0,4.7a2.2,2.2 0 0 0 0.08,0.74a0.58,0.58 0 0 0 0.23,0.26a1,1 0 0 0 0.48,0.1a4.24,4.24 0 0 0 0.57,-0.06z"/>
  <path id="svg_20" fill="#1a5fa9" d="m184.07022,185.62666l1.37,-0.21a1.84,1.84 0 0 0 0.64,1.22a2.78,2.78 0 0 0 2.89,0.05a1.1,1.1 0 0 0 0.46,-0.88a0.81,0.81 0 0 0 -0.41,-0.72a6.33,6.33 0 0 0 -1.41,-0.46a13.11,13.11 0 0 1 -2.11,-0.65a2,2 0 0 1 -0.89,-0.75a1.94,1.94 0 0 1 -0.31,-1.07a2.07,2.07 0 0 1 0.25,-1a2.26,2.26 0 0 1 0.68,-0.76a3.16,3.16 0 0 1 0.88,-0.39a4.2,4.2 0 0 1 1.2,-0.16a4.87,4.87 0 0 1 1.69,0.27a2.29,2.29 0 0 1 1.07,0.73a2.76,2.76 0 0 1 0.47,1.23l-1.35,0.18a1.44,1.44 0 0 0 -0.53,-1a2,2 0 0 0 -1.25,-0.34a2.34,2.34 0 0 0 -1.36,0.3a0.91,0.91 0 0 0 -0.41,0.72a0.73,0.73 0 0 0 0.17,0.47a1.13,1.13 0 0 0 0.53,0.36c0.14,0 0.55,0.17 1.22,0.35a17.31,17.31 0 0 1 2.05,0.62a2,2 0 0 1 0.91,0.71a1.93,1.93 0 0 1 0.33,1.15a2.22,2.22 0 0 1 -0.4,1.27a2.53,2.53 0 0 1 -1.17,0.92a4.26,4.26 0 0 1 -1.72,0.33a3.88,3.88 0 0 1 -2.42,-0.65a3,3 0 0 1 -1.07,-1.84z"/>
  <path id="svg_21" fill="#1a5fa9" d="m206.57022,185.06666l1.36,0.17a3.31,3.31 0 0 1 -3.4,2.92a3.53,3.53 0 0 1 -2.69,-1.07a4.25,4.25 0 0 1 -1,-3.06a5.25,5.25 0 0 1 0.44,-2.25a3,3 0 0 1 1.33,-1.45a4.05,4.05 0 0 1 2,-0.48a3.48,3.48 0 0 1 2.17,0.65a2.93,2.93 0 0 1 1.08,1.86l-1.34,0.21a2.14,2.14 0 0 0 -0.68,-1.21a1.79,1.79 0 0 0 -1.18,-0.4a2.17,2.17 0 0 0 -1.7,0.73a3.41,3.41 0 0 0 -0.65,2.31a3.5,3.5 0 0 0 0.63,2.32a2.06,2.06 0 0 0 1.64,0.73a1.93,1.93 0 0 0 1.36,-0.49a2.35,2.35 0 0 0 0.63,-1.49z"/>
  <path id="svg_22" fill="#1a5fa9" d="m208.59022,183.99666a4,4 0 0 1 1.27,-3.27a3.83,3.83 0 0 1 2.56,-0.88a3.73,3.73 0 0 1 2.75,1.07a4,4 0 0 1 1.07,3a5.25,5.25 0 0 1 -0.47,2.42a3.35,3.35 0 0 1 -1.41,1.29a4,4 0 0 1 -2,0.49a3.75,3.75 0 0 1 -2.77,-1.07a4.24,4.24 0 0 1 -1,-3.05zm1.43,0a3.32,3.32 0 0 0 0.68,2.29a2.21,2.21 0 0 0 1.72,0.76a2.18,2.18 0 0 0 1.71,-0.76a3.4,3.4 0 0 0 0.69,-2.33a3.25,3.25 0 0 0 -0.69,-2.24a2.32,2.32 0 0 0 -3.43,0a3.29,3.29 0 0 0 -0.68,2.28z"/>
  <path id="svg_23" fill="#1a5fa9" d="m217.86022,187.97666l0,-7.95l1.25,0l0,1.13a3,3 0 0 1 2.59,-1.31a3.37,3.37 0 0 1 1.36,0.26a2.24,2.24 0 0 1 0.93,0.67a2.83,2.83 0 0 1 0.43,1a7.89,7.89 0 0 1 0.07,1.31l0,4.89l-1.38,0l0,-4.84a3.47,3.47 0 0 0 -0.16,-1.23a1.33,1.33 0 0 0 -0.57,-0.65a1.91,1.91 0 0 0 -1,-0.24a2.26,2.26 0 0 0 -1.52,0.54a2.66,2.66 0 0 0 -0.65,2.08l0,4.34l-1.35,0z"/>
  <path id="svg_24" fill="#1a5fa9" d="m229.63022,186.76666l0.2,1.19a5.19,5.19 0 0 1 -1,0.12a2.38,2.38 0 0 1 -1.17,-0.23a1.26,1.26 0 0 1 -0.58,-0.61a4.49,4.49 0 0 1 -0.17,-1.59l0,-4.57l-1,0l0,-1l1,0l0,-2l1.37,-0.81l0,2.76l1.39,0l0,1l-1.39,0l0,4.7a2.2,2.2 0 0 0 0.08,0.74a0.52,0.52 0 0 0 0.23,0.26a1,1 0 0 0 0.48,0.1a4,4 0 0 0 0.56,-0.06z"/>
  <path id="svg_25" fill="#1a5fa9" d="m236.57022,185.41666l1.43,0.17a3.33,3.33 0 0 1 -1.25,1.89a3.84,3.84 0 0 1 -2.34,0.68a3.78,3.78 0 0 1 -2.84,-1.08a4.12,4.12 0 0 1 -1.05,-3a4.34,4.34 0 0 1 1.06,-3.11a3.65,3.65 0 0 1 2.78,-1.12a3.53,3.53 0 0 1 2.67,1.08a4.28,4.28 0 0 1 1,3.06c0,0.08 0,0.2 0,0.36l-6.09,0a3,3 0 0 0 0.76,2a2.29,2.29 0 0 0 1.71,0.7a2.15,2.15 0 0 0 1.3,-0.39a2.56,2.56 0 0 0 0.86,-1.24zm-4.54,-2.18l4.56,0a2.59,2.59 0 0 0 -0.53,-1.5a2.14,2.14 0 0 0 -1.71,-0.78a2.2,2.2 0 0 0 -1.6,0.62a2.45,2.45 0 0 0 -0.72,1.66z"/>
  <path id="svg_26" fill="#1a5fa9" d="m238.82022,187.97666l3,-4.13l-2.76,-3.82l1.73,0l1.25,1.86c0.24,0.36 0.43,0.65 0.57,0.89c0.22,-0.33 0.43,-0.62 0.62,-0.87l1.38,-1.88l1.65,0l-2.82,3.74l3,4.21l-1.68,0l-1.68,-2.47l-0.44,-0.67l-2.15,3.14l-1.67,0z"/>
  <path id="svg_27" fill="#1a5fa9" d="m250.63022,186.76666l0.2,1.19a5.28,5.28 0 0 1 -1.05,0.12a2.38,2.38 0 0 1 -1.17,-0.23a1.31,1.31 0 0 1 -0.58,-0.61a4.75,4.75 0 0 1 -0.17,-1.61l0,-4.55l-1,0l0,-1l1,0l0,-2l1.38,-0.81l0,2.76l1.39,0l0,1l-1.39,0l0,4.7a2.29,2.29 0 0 0 0.07,0.74a0.6,0.6 0 0 0 0.24,0.26a1,1 0 0 0 0.47,0.1a4.11,4.11 0 0 0 0.61,-0.06z"/>
  <circle id="svg_28" fill="#66e66a" r="2.05" cy="183.77666" cx="118.43023"/>
  <circle id="svg_29" fill="#f60" r="2.05" cy="183.77666" cx="195.56023"/>
  <text font-style="normal" font-weight="normal" transform="matrix(2.16795 0 0 2.08804 -9.25564 -0.167578)" stroke="null" xml:space="preserve" text-anchor="start" font-family="'Emilys Candy'" font-size="30" id="svg_31" y="32.60796" x="8.37455" fill="#2a76bb">SmartVista</text>
 </g>
</svg>